<?xml version="1.0" encoding="UTF-8" standalone="no"?><!DOCTYPE svg PUBLIC "-//W3C//DTD SVG 1.1//EN" "http://www.w3.org/Graphics/SVG/1.1/DTD/svg11.dtd"><svg width="100%" height="100%" viewBox="0 0 1024 1024" version="1.1" xmlns="http://www.w3.org/2000/svg" xmlns:xlink="http://www.w3.org/1999/xlink" xml:space="preserve" xmlns:serif="http://www.serif.com/" style="fill-rule:evenodd;clip-rule:evenodd;stroke-linejoin:round;stroke-miterlimit:2;"><rect id="Main-Logo" serif:id="Main Logo" x="0" y="0" width="1024" height="1024" style="fill:none;"/><g id="Main-Logo1" serif:id="Main Logo"><rect x="367.658" y="304.397" width="86.202" height="415.205" style="fill:#008aff;"/><rect x="224.759" y="304.397" width="86.202" height="415.205" style="fill:#008aff;"/><rect x="81.86" y="304.397" width="86.202" height="415.205" style="fill:#008aff;"/><path d="M267.86,478.785l142.899,-0l-0,-61.012l-142.899,-0l-0,61.012Z" style="fill:#008aff;"/><path d="M589.371,133.493l85.003,-78.335l-93.916,0l-82.025,78.335l90.938,-0Zm-163.614,-0l72.144,-78.335l-147.064,0l-48.653,78.335l123.573,-0Zm-196.182,-0l38.285,-78.335l-186,0l0.234,78.335l147.481,-0Zm-147.343,46.285l0.234,78.335l86.202,-0l38.285,-78.335l-124.721,-0Zm191.205,-0l-48.653,78.335l86.202,-0l72.144,-78.335l-109.693,-0Zm176.53,-0l-82.026,78.335l86.202,-0l85.003,-78.335l-89.179,-0Zm130.491,789.064l93.916,-0l-220.231,-202.955l-86.202,0l212.517,202.955Zm-229.621,-0l147.064,-0l-186.915,-202.955l-86.202,0l126.053,202.955Zm-268.977,-0l186,-0l-99.192,-202.955l-86.202,0l-0.606,202.955Z" style="fill:#008aff;"/><rect x="507.789" y="626.929" width="24.098" height="92.673" style="fill:#008aff;fill-rule:nonzero;"/><path d="M595.368,626.929l0,92.674l-21.122,-0l-12.536,-42.13l0,42.13l-20.149,-0l0,-92.674l20.149,0l13.509,41.729l0,-41.729l20.149,0Z" style="fill:#008aff;fill-rule:nonzero;"/><path d="M605.042,626.929l40.813,0l-0,18.546l-16.715,0l0,17.573l14.883,0l-0,17.631l-14.883,-0l0,38.924l-24.098,-0l-0,-92.674Z" style="fill:#008aff;fill-rule:nonzero;"/><rect x="651.693" y="626.929" width="24.098" height="92.673" style="fill:#008aff;fill-rule:nonzero;"/><path d="M739.272,626.929l0,92.674l-21.122,-0l-12.536,-42.13l0,42.13l-20.149,-0l0,-92.674l20.149,0l13.509,41.729l0,-41.729l20.149,0Z" style="fill:#008aff;fill-rule:nonzero;"/><rect x="748.946" y="626.929" width="24.098" height="92.673" style="fill:#008aff;fill-rule:nonzero;"/><path d="M838.127,626.929l0,92.674l-24.098,-0l-0,-38.924l-7.213,-0l0,38.924l-24.098,-0l-0,-92.674l24.098,0l0,33.143l7.213,-0l-0,-33.143l24.098,0Z" style="fill:#008aff;fill-rule:nonzero;"/><path d="M889.415,626.929l13.795,92.674l-24.671,-0l-1.202,-16.658l-8.643,0l-1.431,16.658l-24.957,-0l12.25,-92.674l34.859,0Zm-12.764,59.588c-1.222,-10.494 -2.443,-23.449 -3.664,-38.866c-2.442,17.706 -3.969,30.662 -4.579,38.866l8.243,0Z" style="fill:#008aff;fill-rule:nonzero;"/><path d="M931.43,626.929l0,74.127l14.654,0l-0,18.547l-38.752,-0l-0,-92.674l24.098,0Z" style="fill:#008aff;fill-rule:nonzero;"/><path d="M976.021,626.929l-0,74.127l14.654,0l-0,18.547l-38.752,-0l-0,-92.674l24.098,0Z" style="fill:#008aff;fill-rule:nonzero;"/></g></svg>